<svg width="20" height="20" viewBox="0 0 20 20" fill="none" xmlns="http://www.w3.org/2000/svg">
<path fill-rule="evenodd" clip-rule="evenodd" d="M5.22 14.78C5.36063 14.9205 5.55125 14.9993 5.75 14.9993C5.94875 14.9993 6.13937 14.9205 6.28 14.78L13.5 7.56V13.25C13.5 13.4489 13.579 13.6397 13.7197 13.7803C13.8603 13.921 14.0511 14 14.25 14C14.4489 14 14.6397 13.921 14.7803 13.7803C14.921 13.6397 15 13.4489 15 13.25V5.75C15 5.55109 14.921 5.36032 14.7803 5.21967C14.6397 5.07902 14.4489 5 14.25 5H6.75C6.55109 5 6.36032 5.07902 6.21967 5.21967C6.07902 5.36032 6 5.55109 6 5.75C6 5.94891 6.07902 6.13968 6.21967 6.28033C6.36032 6.42098 6.55109 6.5 6.75 6.5H12.44L5.22 13.72C5.07955 13.8606 5.00066 14.0512 5.00066 14.25C5.00066 14.4488 5.07955 14.6394 5.22 14.78Z" fill="white"/>
</svg>
