<svg width="25" height="24" viewBox="0 0 25 24" fill="none" xmlns="http://www.w3.org/2000/svg">
<path d="M16.3975 8.981H11.8095V0H16.3975C18.8735 0 20.8875 2.014 20.8875 4.49C20.8875 6.966 18.8735 8.981 16.3975 8.981ZM13.2805 7.51H16.3975C18.0625 7.51 19.4165 6.155 19.4165 4.491C19.4165 2.827 18.0615 1.472 16.3975 1.472H13.2805V7.51ZM13.2805 8.981H8.69345C6.21745 8.981 4.20345 6.967 4.20345 4.491C4.20345 2.015 6.21745 0 8.69345 0H13.2815V8.981H13.2805ZM8.69345 1.471C7.02845 1.471 5.67445 2.826 5.67445 4.49C5.67445 6.154 7.02845 7.51 8.69345 7.51H11.8105V1.471H8.69345ZM13.2805 16.49H8.69345C6.21745 16.49 4.20345 14.476 4.20345 12C4.20345 9.524 6.21745 7.51 8.69345 7.51H13.2815V16.49H13.2805ZM8.69345 8.981C7.02845 8.981 5.67445 10.336 5.67445 12C5.67445 13.664 7.02945 15.019 8.69345 15.019H11.8105V8.981H8.69345ZM8.71745 24C6.22845 24 4.20245 21.986 4.20245 19.51C4.20245 17.034 6.21645 15.02 8.69245 15.02H13.2805V19.461C13.2805 21.964 11.2335 24 8.71745 24ZM8.69345 16.49C7.89309 16.4911 7.12581 16.8095 6.55987 17.3754C5.99392 17.9414 5.67551 18.7086 5.67445 19.509C5.67445 21.174 7.03945 22.528 8.71845 22.528C10.4235 22.528 11.8115 21.152 11.8115 19.46V16.49H8.69345ZM16.3975 16.49H16.2995C13.8235 16.49 11.8095 14.476 11.8095 12C11.8095 9.524 13.8235 7.51 16.2995 7.51H16.3975C18.8735 7.51 20.8875 9.524 20.8875 12C20.8875 14.476 18.8735 16.49 16.3975 16.49ZM16.3005 8.981C14.6355 8.981 13.2815 10.336 13.2815 12C13.2815 13.664 14.6365 15.019 16.3005 15.019H16.3985C18.0635 15.019 19.4175 13.664 19.4175 12C19.4175 10.336 18.0615 8.981 16.3975 8.981H16.3005Z" fill="#A6A6A6"/>
</svg>
