<svg width="24" height="24" viewBox="0 0 24 24" fill="none" xmlns="http://www.w3.org/2000/svg">
<path d="M13.5161 16.1498L13.4047 16.1228C10.9438 15.402 10.5641 13.4395 10.5641 13.4395L13.9732 14.3923L15.7781 7.4569L15.7564 7.45109C13.5425 6.85821 12.0739 5.82134 11.4919 5.33384C10.6669 4.6429 10.304 4.16271 9.94686 4.88909C9.63148 5.52978 9.22761 6.57228 8.83686 8.03196C7.99011 11.1927 7.35711 17.8624 12.5919 19.2658L12.6992 19.29L13.5161 16.1498ZM9.9898 10.3654C9.9898 10.3654 10.8148 9.08234 12.2139 9.48003C13.614 9.87771 13.7224 11.4255 13.7224 11.4255L9.9898 10.3654ZM8.39286 14.7625L5.96005 15.4519C5.96005 15.4519 6.22442 13.9465 8.01655 13.3497L6.63899 8.17971L6.51992 8.2159C4.81161 8.67659 3.43067 8.55434 2.8543 8.45459C2.03736 8.31378 1.61005 8.13434 1.65017 8.75571C1.68505 9.30378 1.81555 10.1533 2.11461 11.2757C2.76149 13.7059 4.89973 18.3889 8.94055 17.3005L9.05961 17.2632L8.39286 14.7625ZM3.66524 11.3091L6.53698 10.5525C6.53698 10.5525 6.45336 11.6573 5.37674 11.941C4.29992 12.2245 3.66524 11.3091 3.66524 11.3091ZM20.5072 7.75053C19.7608 7.8814 17.97 8.04434 15.7567 7.45128C13.5429 6.8584 12.0742 5.82153 11.4922 5.33403C10.6672 4.64309 10.3044 4.1629 9.94723 4.88928C9.63148 5.52996 9.2278 6.57246 8.83705 8.03215C7.9903 11.1928 7.3573 17.8626 12.5921 19.266C17.8256 20.6683 20.6119 14.5753 21.4588 11.4145C21.8495 9.95515 22.0209 8.85021 22.0682 8.13771C22.122 7.33053 21.5675 7.5649 20.5074 7.75071L20.5072 7.75053ZM9.9898 10.3654C9.9898 10.3654 10.8148 9.08234 12.2139 9.48003C13.614 9.87771 13.7224 11.4255 13.7224 11.4255L9.9898 10.3654ZM13.4053 16.1228C10.9444 15.4018 10.5647 13.4395 10.5647 13.4395L17.1757 15.2878C17.1757 15.2875 15.8413 16.8347 13.4053 16.1228ZM15.7427 12.0897C15.7427 12.0897 16.5665 10.8075 17.9653 11.2063C19.364 11.6046 19.4743 13.1524 19.4743 13.1524L15.7427 12.0897ZM9.69973 15.7378V14.3918L5.96005 15.4523C5.96005 15.4523 6.23642 13.8467 8.1868 13.2934C8.77836 13.1258 9.28292 13.1269 9.69973 13.2073V7.68659H11.5723C11.3685 7.05659 11.1712 6.57153 11.0055 6.23459C10.7315 5.67678 10.4505 6.04653 9.8128 6.57996C9.36355 6.95515 8.22842 7.75578 6.52011 8.21609C4.8118 8.67678 3.43086 8.55453 2.85448 8.45478C2.03755 8.31378 1.61024 8.13453 1.65036 8.75571C1.68524 9.30378 1.81574 10.1535 2.1148 11.2757C2.76167 13.7061 4.89973 18.3889 8.94055 17.3005C9.99598 17.016 10.7413 16.4539 11.2577 15.7375H9.69973V15.7378ZM3.66524 11.3091L6.53698 10.5525C6.53698 10.5525 6.45317 11.6573 5.37655 11.941C4.29973 12.2245 3.66505 11.3089 3.66505 11.3089L3.66524 11.3091Z" fill="#A6A6A6"/>
</svg>
