<svg width="24" height="24" viewBox="0 0 24 24" fill="none" xmlns="http://www.w3.org/2000/svg">
<path d="M13.74 1.05298C13.6867 1.05289 13.6337 1.06133 13.583 1.07798C13.4817 1.1123 13.3941 1.17819 13.333 1.26598L7.59501 9.56198C7.54945 9.62846 7.52063 9.70496 7.51101 9.78498C7.50252 9.86507 7.51349 9.94604 7.54301 10.021C7.57343 10.0957 7.62147 10.1619 7.68301 10.214C7.74513 10.2659 7.8189 10.3019 7.89801 10.319L11.605 11.105L11.375 15.685C11.3706 15.7915 11.4004 15.8966 11.46 15.985C11.5209 16.0731 11.6086 16.1394 11.71 16.174C11.8117 16.2075 11.9214 16.2075 12.023 16.174C12.1242 16.1399 12.2118 16.0744 12.273 15.987L18.011 7.69098C18.0566 7.6245 18.0854 7.548 18.095 7.46798C18.1035 7.38788 18.0925 7.30692 18.063 7.23198C18.0327 7.15694 17.9847 7.09036 17.923 7.03798C17.8608 6.98645 17.787 6.95077 17.708 6.93398L14.001 6.14698L14.231 1.56698C14.2354 1.46048 14.2056 1.35536 14.146 1.26698C14.0849 1.17919 13.9973 1.1133 13.896 1.07898C13.8457 1.06209 13.7931 1.05332 13.74 1.05298ZM1.15701 9.78798C0.850013 9.78898 0.557013 9.91198 0.340013 10.128C0.123175 10.3447 0.000936347 10.6384 1.32453e-05 10.945C-0.00145161 11.2517 0.11864 11.5466 0.334013 11.765L11.176 22.607C11.2845 22.7142 11.4125 22.7997 11.553 22.859C11.6944 22.9163 11.8454 22.9462 11.998 22.947H12.002C12.1546 22.9462 12.3056 22.9163 12.447 22.859C12.5876 22.7997 12.7155 22.7142 12.824 22.607L23.666 11.764C23.8814 11.5456 24.0015 11.2507 24 10.944C23.9988 10.6378 23.8766 10.3444 23.66 10.128C23.4433 9.91114 23.1496 9.7889 22.843 9.78798C22.5363 9.78651 22.2414 9.90661 22.023 10.122L16.623 15.522L16.597 15.542L12 20.14L7.40201 15.543L7.37801 15.523L1.97701 10.122C1.75859 9.90661 1.46376 9.78651 1.15701 9.78798Z" fill="#A6A6A6"/>
</svg>
